<svg xmlns="http://www.w3.org/2000/svg" style="display: none;">

    <symbol id="circle-check" viewBox="0 0 32 32">
      <title>circle-check icon</title>
      <path stroke="#449FDB" d="M0 0"/><path d="M16 1.333q2.99 0 5.703 1.161t4.677 3.125 3.125 4.677 1.161 5.703-1.161 5.703-3.125 4.677-4.677 3.125-5.703 1.161-5.703-1.161-4.677-3.125-3.125-4.677-1.161-5.703 1.161-5.703 3.125-4.677 4.677-3.125 5.703-1.161zm0 2.667q-2.438 0-4.661.953t-3.828 2.557-2.557 3.828-.953 4.661.953 4.661 2.557 3.828 3.828 2.557 4.661.953 4.661-.953 3.828-2.557 2.557-3.828.953-4.661-.953-4.661-2.557-3.828-3.828-2.557-4.661-.953zm4.49 7.99q.552 0 .943.391t.391.943-.396.948l-5.656 5.656q-.385.385-.938.385-.563 0-.948-.385l-2.833-2.823q-.385-.385-.385-.948 0-.552.391-.943t.943-.391.948.396l1.885 1.885 4.708-4.719q.396-.396.948-.396z"/>
    </symbol>

    <symbol id="circle-cross" viewBox="0 0 32 32">
      <title>circle-cross icon</title>
      <path stroke="#449FDB" d="M0 0"/><path d="M16 1.333q2.99 0 5.703 1.161t4.677 3.125 3.125 4.677 1.161 5.703-1.161 5.703-3.125 4.677-4.677 3.125-5.703 1.161-5.703-1.161-4.677-3.125-3.125-4.677-1.161-5.703 1.161-5.703 3.125-4.677 4.677-3.125 5.703-1.161zm0 2.667q-2.438 0-4.661.953t-3.828 2.557-2.557 3.828-.953 4.661.953 4.661 2.557 3.828 3.828 2.557 4.661.953 4.661-.953 3.828-2.557 2.557-3.828.953-4.661-.953-4.661-2.557-3.828-3.828-2.557-4.661-.953zm3.771 6.885q.552 0 .948.391t.396.943-.396.948l-2.833 2.833 2.833 2.823q.396.396.396.938 0 .552-.396.943t-.948.391-.938-.385l-2.833-2.823-2.823 2.823q-.385.385-.948.385-.552 0-.943-.385t-.391-.938q0-.563.385-.948l2.833-2.823-2.833-2.833q-.385-.385-.385-.938t.391-.948.943-.396.948.396l2.823 2.833 2.833-2.833q.396-.396.938-.396z"/>
    </symbol>

</svg>


